<!--<svg xmlns="http://www.w3.org/2000/svg" xmlns:xlink="http://www.w3.org/1999/xlink" aria-hidden="true" role="img"-->
<!--     class="iconify iconify&#45;&#45;logos" width="31.88" height="32" preserveAspectRatio="xMidYMid meet" viewBox="0 0 256 257">-->
<!--    <defs>-->
<!--        <linearGradient id="IconifyId1813088fe1fbc01fb466" x1="-.828%" x2="57.636%" y1="7.652%" y2="78.411%">-->
<!--            <stop offset="0%" stop-color="#41D1FF"></stop>-->
<!--            <stop offset="100%" stop-color="#BD34FE"></stop>-->
<!--        </linearGradient>-->
<!--        <linearGradient id="IconifyId1813088fe1fbc01fb467" x1="43.376%" x2="50.316%" y1="2.242%" y2="89.03%">-->
<!--            <stop offset="0%" stop-color="#FFEA83"></stop>-->
<!--            <stop offset="8.333%" stop-color="#FFDD35"></stop>-->
<!--            <stop offset="100%" stop-color="#FFA800"></stop>-->
<!--        </linearGradient>-->
<!--    </defs>-->
<!--    <path fill="url(#IconifyId1813088fe1fbc01fb466)"-->
<!--          d="M255.153 37.938L134.897 252.976c-2.483 4.44-8.862 4.466-11.382.048L.875 37.958c-2.746-4.814 1.371-10.646 6.827-9.67l120.385 21.517a6.537 6.537 0 0 0 2.322-.004l117.867-21.483c5.438-.991 9.574 4.796 6.877 9.62Z"></path>-->
<!--    <path fill="url(#IconifyId1813088fe1fbc01fb467)"-->
<!--          d="M185.432.063L96.44 17.501a3.268 3.268 0 0 0-2.634 3.014l-5.474 92.456a3.268 3.268 0 0 0 3.997 3.378l24.777-5.718c2.318-.535 4.413 1.507 3.936 3.838l-7.361 36.047c-.495 2.426 1.782 4.5 4.151 3.78l15.304-4.649c2.372-.72 4.652 1.36 4.15 3.788l-11.698 56.621c-.732 3.542 3.979 5.473 5.943 2.437l1.313-2.028l72.516-144.72c1.215-2.423-.88-5.186-3.54-4.672l-25.505 4.922c-2.396.462-4.435-1.77-3.759-4.114l16.646-57.705c.677-2.35-1.37-4.583-3.769-4.113Z"></path>-->
<!--</svg>-->

<svg fill="#1797a1" width="256px" height="256px" viewBox="-6.4 -6.4 76.80 76.80" xmlns="http://www.w3.org/2000/svg"
     stroke="#1797a1" stroke-width="0.00064">
    <g id="SVGRepo_bgCarrier" stroke-width="0" transform="translate(0,0), scale(1)"/>
    <g id="SVGRepo_tracerCarrier" stroke-linecap="round" stroke-linejoin="round" stroke="#CCCCCC"
       stroke-width="0.128"/>
    <g id="SVGRepo_iconCarrier">
        <title/>
        <g id="Outline">
            <path d="M27.71,24.16a1.32,1.32,0,0,0,.89.23,1.1,1.1,0,0,0,.58-.23,1.2,1.2,0,0,0,.37-.55L30,22.12l4.52-.5L35.35,23a1.22,1.22,0,0,0,.47.46,1.14,1.14,0,0,0,.61.1,1.28,1.28,0,0,0,.81-.42,1,1,0,0,0,.28-.82,1.21,1.21,0,0,0-.18-.5l-4.53-7.17a1.4,1.4,0,0,0-.61-.52,1.72,1.72,0,0,0-.81-.11,1.61,1.61,0,0,0-.77.29,1.27,1.27,0,0,0-.47.64l-2.84,8a1.13,1.13,0,0,0-.07.53A1,1,0,0,0,27.71,24.16Zm4-7.33,1.74,3-2.79.31Z"/>
            <path d="M21.93,45.31a2.32,2.32,0,0,0,1.13-.85,2.39,2.39,0,0,0-.51-3.22,4,4,0,0,0-2.48-.7h-3.6a1.25,1.25,0,0,0-.89.31,1.23,1.23,0,0,0-.3.89v7.52a1.23,1.23,0,0,0,.3.89,1.25,1.25,0,0,0,.89.31h3.74a4.82,4.82,0,0,0,1.86-.34,2.83,2.83,0,0,0,1.23-.95,2.46,2.46,0,0,0,.42-1.43,2.51,2.51,0,0,0-.46-1.54A2.56,2.56,0,0,0,21.93,45.31ZM17.79,42.5h1.84a1.86,1.86,0,0,1,1.07.24.85.85,0,0,1,.34.76.79.79,0,0,1-.34.71,2,2,0,0,1-1.07.23H17.79ZM21,48.26a1.93,1.93,0,0,1-1.1.24h-2.1V46.39h2.1a1.84,1.84,0,0,1,1.1.25.93.93,0,0,1,.33.81A1,1,0,0,1,21,48.26Z"/>
            <path d="M53,32H41.23l1.21-.14A4.92,4.92,0,0,0,45.79,30a5,5,0,0,0,1.07-3.68L45,9.45A5,5,0,0,0,39.45,5L21.56,7a4.92,4.92,0,0,0-3.35,1.84,5,5,0,0,0-1.07,3.68L19,29.44A5,5,0,0,0,20.09,32H11a5,5,0,0,0-5,5V54a5,5,0,0,0,5,5H28a5,5,0,0,0,4-2,5,5,0,0,0,4,2H53a5,5,0,0,0,5-5V37A5,5,0,0,0,53,32ZM32,34a4.69,4.69,0,0,0-.88-.9l2-.23A5.14,5.14,0,0,0,32,34ZM19.77,10.12a3,3,0,0,1,2-1.11L39.67,7,40,7a3,3,0,0,1,3,2.67l1.89,16.89a3,3,0,0,1-2.65,3.32l-17.89,2A3,3,0,0,1,21,29.22L19.13,12.33A3,3,0,0,1,19.77,10.12ZM28,57H11a3,3,0,0,1-3-3V37a3,3,0,0,1,3-3H28a3,3,0,0,1,3,3V54A3,3,0,0,1,28,57Zm28-3a3,3,0,0,1-3,3H36a3,3,0,0,1-3-3V37a3,3,0,0,1,3-3H53a3,3,0,0,1,3,3Z"/>
            <path d="M45.32,42.46a3.37,3.37,0,0,1,.9.12,4.65,4.65,0,0,1,.93.42,1.92,1.92,0,0,0,.39.21,1.16,1.16,0,0,0,.38.06.74.74,0,0,0,.6-.3,1.16,1.16,0,0,0,.25-.74,1.06,1.06,0,0,0-.11-.5,1,1,0,0,0-.34-.37,5.34,5.34,0,0,0-3.14-.94,5.25,5.25,0,0,0-2.61.62,4.28,4.28,0,0,0-1.73,1.77,6.24,6.24,0,0,0,0,5.38A4.28,4.28,0,0,0,42.57,50a5.25,5.25,0,0,0,2.61.62,5.34,5.34,0,0,0,3.14-.94,1.06,1.06,0,0,0,.34-.37,1.09,1.09,0,0,0,.11-.5,1.16,1.16,0,0,0-.25-.74.74.74,0,0,0-.6-.3,1,1,0,0,0-.33.05l-.44.22c-.41.18-.75.32-1,.41a2.51,2.51,0,0,1-.82.13,2.26,2.26,0,0,1-1.86-.75,3.59,3.59,0,0,1-.61-2.3,3.55,3.55,0,0,1,.61-2.28A2.26,2.26,0,0,1,45.32,42.46Z"/>
        </g>
    </g>
</svg>